<?xml version="1.0" standalone="no"?>
<!DOCTYPE svg PUBLIC "-//W3C//DTD SVG 20010904//EN"
 "http://www.w3.org/TR/2001/REC-SVG-20010904/DTD/svg10.dtd">
<svg version="1.0" xmlns="http://www.w3.org/2000/svg"
 width="1662.000000pt" height="2000.000000pt" viewBox="0 0 1662.000000 2000.000000"
 preserveAspectRatio="xMidYMid meet">
<metadata>
Created by potrace 1.14, written by Peter Selinger 2001-2017
</metadata>
<g transform="translate(0.000000,2000.000000) scale(0.100000,-0.100000)"
fill="#000000" stroke="none">
<path d="M6165 16139 c-134 -14 -365 -63 -495 -105 -777 -247 -1371 -856
-1596 -1637 -69 -239 -95 -429 -95 -682 1 -279 35 -487 127 -765 129 -387 344
-725 648 -1017 124 -119 308 -264 425 -333 39 -23 71 -47 71 -52 0 -6 -16 -37
-35 -69 -93 -152 -177 -370 -215 -560 -12 -56 -25 -169 -30 -253 -5 -86 -10
-1208 -10 -2608 l0 -2458 -59 0 c-81 0 -216 -25 -303 -56 -354 -127 -613 -408
-715 -774 -34 -124 -44 -277 -41 -620 l3 -305 2310 0 2310 0 5 1033 5 1032
105 -81 c160 -125 262 -212 405 -349 97 -94 143 -131 183 -147 l53 -22 30 65
c16 36 29 68 29 70 0 21 95 146 150 197 135 125 254 162 490 154 163 -6 258
-25 444 -87 169 -57 488 -218 686 -346 91 -58 170 -108 177 -111 7 -3 -12 55
-42 129 -65 162 -79 231 -73 346 9 150 69 267 216 423 184 194 430 369 792
564 228 123 351 175 510 215 l145 36 -55 21 c-255 97 -468 194 -675 310 -152
85 -455 267 -455 273 0 9 232 160 336 219 131 73 358 181 509 241 72 29 141
57 155 62 22 9 2 16 -140 53 -381 99 -857 294 -1470 602 -266 133 -650 336
-717 379 l-23 14 0 1863 c0 1218 -4 1877 -11 1906 -36 157 -168 286 -327 320
-35 7 -204 11 -488 11 l-434 0 5 23 c14 58 22 337 15 477 -9 162 -12 190 -37
330 -183 1049 -1047 1884 -2128 2055 -121 20 -539 28 -670 14z m580 -234 c395
-60 816 -238 1122 -474 484 -374 806 -949 873 -1560 16 -141 8 -451 -14 -576
-57 -318 -158 -577 -324 -830 -345 -527 -874 -873 -1507 -986 -112 -20 -163
-23 -370 -23 -261 0 -337 9 -558 64 -323 82 -670 253 -922 454 -108 87 -260
240 -352 356 -46 57 -83 107 -83 111 0 3 30 0 68 -7 484 -91 1045 24 1467 303
333 220 572 496 751 868 196 407 230 745 102 1013 -45 96 -157 256 -250 359
-240 265 -567 502 -984 714 l-171 87 91 31 c163 55 345 93 529 111 128 12 401
4 532 -15z m-1714 -590 c230 -66 450 -187 573 -313 l38 -40 -4 -94 c-6 -117
-29 -170 -113 -254 -69 -70 -168 -123 -321 -174 -108 -36 -164 -78 -164 -122
0 -35 49 -107 103 -151 57 -47 197 -135 255 -161 23 -10 42 -22 42 -26 0 -15
-176 -122 -295 -181 -131 -64 -287 -119 -407 -143 -155 -32 -308 -12 -350 44
-10 14 -28 71 -39 125 -18 85 -20 124 -16 260 5 171 19 249 68 399 46 138 166
375 267 526 97 144 247 330 266 330 7 0 50 -11 97 -25z m4866 -2323 c24 -12
55 -41 70 -64 l28 -42 3 -2088 c2 -1574 -1 -2088 -9 -2082 -27 16 -570 454
-767 617 -117 98 -323 273 -458 390 -136 116 -255 218 -265 226 -18 13 -19 46
-19 1090 l0 1076 61 85 c161 226 293 504 355 748 l19 73 470 -3 c467 -3 470
-3 512 -26z m-1657 -1309 l0 -206 -56 94 c-31 52 -70 111 -87 132 l-30 39 54
46 c29 26 67 59 84 74 16 15 31 28 33 28 1 0 2 -93 2 -207z m-285 -188 c65
-97 169 -312 204 -422 62 -189 73 -280 79 -597 l4 -290 -153 140 c-285 257
-543 498 -699 649 -172 167 -184 177 -300 239 l-81 43 118 28 c251 59 472 147
673 269 87 53 78 56 155 -59z m-2399 -69 c201 -85 442 -145 688 -172 78 -9
142 -17 144 -18 1 -2 -23 -16 -55 -31 -39 -19 -88 -59 -149 -120 -78 -77 -98
-105 -137 -185 -69 -143 -81 -198 -81 -380 -1 -154 -1 -155 31 -221 174 -366
498 -1928 757 -3647 30 -200 57 -366 59 -369 3 -3 77 7 164 22 144 25 173 27
338 22 289 -9 516 -66 783 -199 l142 -71 0 -744 0 -743 -697 2 -698 3 -7 60
c-11 90 -54 230 -98 323 -122 257 -344 465 -612 573 l-58 23 0 948 0 948 -165
0 -165 0 0 -925 0 -925 -64 0 c-73 0 -199 -22 -268 -47 -46 -16 -49 -16 -123
7 l-75 24 2 2605 c4 2927 -4 2657 79 2906 46 139 156 365 178 365 4 0 43 -15
87 -34z m1284 -391 c36 -8 99 -26 140 -41 63 -23 86 -39 140 -93 61 -62 93
-117 562 -971 274 -498 511 -930 528 -961 l30 -56 -471 -257 c-259 -142 -475
-254 -479 -249 -19 21 -1059 1924 -1076 1968 -29 75 -26 268 4 350 60 162 200
295 343 325 53 11 190 4 279 -15z m1041 -761 c321 -298 839 -751 1234 -1080
1133 -941 2146 -1661 2938 -2087 l169 -90 -50 -19 c-27 -10 -92 -40 -144 -67
-445 -229 -873 -605 -1018 -896 -47 -94 -68 -171 -77 -277 -3 -43 -8 -78 -10
-78 -3 0 -71 31 -152 69 -358 168 -625 241 -883 241 -299 0 -533 -120 -690
-354 l-44 -65 -40 40 c-21 22 -92 88 -156 146 -586 528 -1201 797 -1758 769
-69 -3 -152 -10 -184 -16 -33 -5 -61 -8 -63 -6 -2 2 -21 124 -43 272 -132 917
-311 1917 -456 2548 -19 82 -33 151 -31 152 1 2 182 -314 401 -702 l399 -704
61 34 61 34 30 -40 c43 -57 163 -169 231 -215 273 -185 616 -234 934 -132 87
28 280 119 280 133 0 6 -99 193 -220 416 l-220 405 100 50 c55 27 100 53 100
58 0 6 -797 1446 -908 1642 -13 21 43 -26 209 -181z m2516 -1430 c531 -288
1093 -549 1521 -705 75 -28 138 -52 140 -54 2 -2 -29 -20 -69 -41 -114 -57
-332 -191 -452 -276 l-109 -78 -147 95 c-280 179 -622 420 -961 678 l-109 82
0 198 c-1 108 1 197 4 197 3 0 85 -43 182 -96z m-2137 -597 c72 -130 128 -241
125 -246 -11 -18 -143 -34 -241 -29 -124 7 -239 43 -338 108 -88 58 -172 141
-154 152 178 106 465 264 470 259 3 -3 65 -113 138 -244z m-2359 -2891 c140
-36 202 -62 297 -126 142 -95 255 -228 327 -384 33 -70 75 -214 75 -255 l0
-21 -860 0 -860 0 0 28 c1 122 94 331 212 477 120 147 243 220 483 284 102 27
213 26 326 -3z m-880 -2 l36 -6 -96 -97 c-171 -171 -262 -346 -307 -593 l-17
-88 -273 0 c-313 0 -284 -11 -259 100 81 343 339 603 670 673 74 16 185 21
246 11z m-421 -1159 l0 -145 -240 0 -240 0 0 145 0 145 240 0 240 0 0 -145z
m3640 0 l0 -145 -1690 0 -1690 0 0 145 0 145 1690 0 1690 0 0 -145z"/>
<path d="M8725 12041 c-82 -34 -92 -157 -16 -208 l34 -23 479 0 c525 0 522 0
553 60 31 59 14 128 -37 160 -32 19 -50 20 -513 19 -264 0 -489 -4 -500 -8z"/>
<path d="M8709 11667 c-66 -45 -70 -139 -8 -192 l31 -26 499 3 499 3 26 26
c18 18 28 41 31 73 6 53 -11 86 -60 116 -31 19 -54 20 -508 20 l-476 0 -34
-23z"/>
<path d="M8708 11323 c-15 -9 -33 -28 -40 -41 -17 -33 -14 -96 6 -128 36 -54
45 -55 567 -52 l481 3 34 37 c51 56 42 126 -22 177 -26 21 -35 21 -513 21
-436 -1 -489 -2 -513 -17z"/>
</g>
</svg>
